<!-- Generated by IcoMoon.io -->
<svg version="1.1" xmlns="http://www.w3.org/2000/svg" width="48" height="48" viewBox="0 0 48 48">
<title>arrow-down-thin</title>
<path d="M38.056 33.93c-0.465-0.465-1.2-0.45-1.695 0l-11.16 9.96v-42.69c0-0.66-0.54-1.2-1.2-1.2s-1.2 0.54-1.2 1.2v42.69l-11.16-9.945c-0.51-0.435-1.215-0.48-1.68-0.015s-0.495 1.275-0.015 1.71c0 0 13.050 11.88 13.2 12s0.42 0.36 0.855 0.36 0.735-0.24 0.855-0.36 13.2-12 13.2-12c0.225-0.225 0.345-0.54 0.345-0.855s-0.12-0.615-0.345-0.855z"></path>
</svg>
