<!-- Generated by IcoMoon.io -->
<svg version="1.1" xmlns="http://www.w3.org/2000/svg" width="48" height="48" viewBox="0 0 48 48">
<title>arrow-right-thin</title>
<path d="M33.93 38.056c-0.465-0.465-0.45-1.2 0-1.695l9.96-11.16h-42.69c-0.66 0-1.2-0.54-1.2-1.2s0.54-1.2 1.2-1.2h42.69l-9.945-11.16c-0.435-0.51-0.48-1.215-0.015-1.68s1.275-0.495 1.71-0.015c0 0 11.88 13.050 12 13.2s0.36 0.42 0.36 0.855-0.24 0.735-0.36 0.855-12 13.2-12 13.2c-0.225 0.225-0.54 0.345-0.855 0.345s-0.615-0.12-0.855-0.345z"></path>
</svg>
