<!-- Generated by IcoMoon.io -->
<svg version="1.1" xmlns="http://www.w3.org/2000/svg" width="48" height="48" viewBox="0 0 48 48">
<title>arrow-left-thin</title>
<path d="M14.070 38.055c0.465-0.465 0.45-1.2 0-1.695l-9.96-11.16h42.69c0.66 0 1.2-0.54 1.2-1.2s-0.54-1.2-1.2-1.2h-42.69l9.945-11.16c0.435-0.51 0.48-1.215 0.015-1.68s-1.275-0.495-1.71-0.015c0 0-11.88 13.050-12 13.2s-0.36 0.42-0.36 0.855 0.24 0.735 0.36 0.855 12 13.2 12 13.2c0.225 0.225 0.54 0.345 0.855 0.345s0.615-0.12 0.855-0.345z"></path>
</svg>
