<svg version="1.1" xmlns="http://www.w3.org/2000/svg" width="48" height="48" viewBox="0 0 48 48">
<title>bolt</title>
<path fill="currentColor" d="M36.604 12.635q0.519 0.577 0.202 1.269l-15.577 33.375q-0.375 0.721-1.212 0.721-0.115 0-0.404-0.058-0.49-0.144-0.736-0.548t-0.13-0.865l5.683-23.308-11.712 2.913q-0.115 0.029-0.346 0.029-0.519 0-0.894-0.317-0.519-0.433-0.375-1.125l5.798-23.798q0.115-0.404 0.462-0.663t0.808-0.26h9.462q0.548 0 0.923 0.361t0.375 0.851q0 0.231-0.144 0.519l-4.933 13.356 11.423-2.827q0.231-0.058 0.346-0.058 0.548 0 0.981 0.433z"></path>
</svg>
