<svg version="1.1" xmlns="http://www.w3.org/2000/svg" width="48" height="48" viewBox="0 0 48 48">
<title>camera-add</title>
<path fill="currentColor" d="M6.261 8.348v-6.261h4.174v6.261h6.261v4.174h-6.261v6.261h-4.174v-6.261h-6.261v-4.174h6.261zM12.522 20.87v-6.261h6.261v-6.261h14.609l3.819 4.174h6.615c2.296 0 4.174 1.878 4.174 4.174v25.043c0 2.296-1.878 4.174-4.174 4.174h-33.391c-2.296 0-4.174-1.878-4.174-4.174v-20.87h6.261zM27.13 39.652c5.76 0 10.435-4.675 10.435-10.435s-4.675-10.435-10.435-10.435-10.435 4.675-10.435 10.435 4.675 10.435 10.435 10.435zM20.452 29.218c0 3.694 2.984 6.678 6.678 6.678s6.678-2.984 6.678-6.678-2.984-6.678-6.678-6.678-6.678 2.984-6.678 6.678z"></path>
</svg>
