<svg version="1.1" xmlns="http://www.w3.org/2000/svg" width="48" height="48" viewBox="0 0 48 48">
<title>chain</title>
<path fill="currentColor" d="M42.353 35.294c0-0.765-0.294-1.471-0.824-2l-6.118-6.118c-0.529-0.529-1.265-0.824-2-0.824-0.853 0-1.529 0.323-2.118 0.941 0.971 0.97 2.118 1.794 2.118 3.294 0 1.559-1.265 2.823-2.823 2.823-1.5 0-2.324-1.147-3.294-2.118-0.618 0.588-0.97 1.265-0.97 2.147 0 0.735 0.294 1.471 0.824 2l6.059 6.088c0.529 0.529 1.265 0.794 2 0.794s1.471-0.265 2-0.765l4.324-4.294c0.529-0.529 0.824-1.235 0.824-1.97zM21.676 14.559c0-0.735-0.294-1.471-0.824-2l-6.059-6.088c-0.529-0.529-1.265-0.824-2-0.824s-1.471 0.294-2 0.794l-4.324 4.294c-0.529 0.529-0.824 1.235-0.824 1.97 0 0.765 0.294 1.471 0.824 2l6.118 6.118c0.529 0.529 1.265 0.794 2 0.794 0.853 0 1.529-0.294 2.118-0.912-0.971-0.971-2.118-1.794-2.118-3.294 0-1.559 1.265-2.823 2.823-2.823 1.5 0 2.324 1.147 3.294 2.118 0.618-0.588 0.971-1.265 0.971-2.147zM48 35.294c0 2.235-0.912 4.412-2.5 5.971l-4.324 4.294c-1.588 1.588-3.735 2.441-5.971 2.441-2.265 0-4.412-0.882-6-2.5l-6.059-6.088c-1.588-1.588-2.441-3.735-2.441-5.971 0-2.324 0.941-4.529 2.588-6.147l-2.588-2.588c-1.618 1.647-3.794 2.588-6.118 2.588-2.235 0-4.412-0.882-6-2.471l-6.118-6.118c-1.618-1.618-2.471-3.735-2.471-6 0-2.235 0.912-4.412 2.5-5.971l4.324-4.294c1.588-1.588 3.735-2.441 5.971-2.441 2.265 0 4.412 0.882 6 2.5l6.059 6.088c1.588 1.588 2.441 3.735 2.441 5.971 0 2.324-0.941 4.529-2.588 6.147l2.588 2.588c1.618-1.647 3.794-2.588 6.118-2.588 2.235 0 4.412 0.882 6 2.471l6.118 6.118c1.618 1.618 2.471 3.735 2.471 6z"></path>
</svg>
