<!-- Generated by IcoMoon.io -->
<svg version="1.1" xmlns="http://www.w3.org/2000/svg" width="48" height="48" viewBox="0 0 48 48">
<title>chart-line</title>
<path d="M48 39v3h-48v-36h3v33h45zM45 9.75v10.195q0 0.492-0.457 0.691t-0.832-0.176l-2.836-2.836-14.836 14.836q-0.234 0.234-0.539 0.234t-0.539-0.234l-5.461-5.461-9.75 9.75-4.5-4.5 13.711-13.711q0.234-0.234 0.539-0.234t0.539 0.234l5.461 5.461 10.875-10.875-2.836-2.836q-0.375-0.375-0.176-0.832t0.691-0.457h10.195q0.328 0 0.539 0.211t0.211 0.539z"></path>
</svg>
