<svg version="1.1" xmlns="http://www.w3.org/2000/svg" width="48" height="48" viewBox="0 0 48 48">
<title>comment</title>
<path fill="currentColor" d="M48 20.569c0 9.482-10.741 17.143-24 17.143-1.313 0-2.625-0.080-3.884-0.214-3.509 3.107-7.688 5.304-12.321 6.482-0.964 0.268-2.009 0.455-3.054 0.589-0.589 0.053-1.152-0.375-1.286-1.018v-0.027c-0.134-0.67 0.321-1.071 0.723-1.553 1.687-1.902 3.616-3.509 4.875-7.982-5.518-3.134-9.053-7.982-9.053-13.42 0-9.455 10.741-17.143 24-17.143s24 7.661 24 17.143z"></path>
</svg>
