<svg version="1.1" xmlns="http://www.w3.org/2000/svg" width="48" height="48" viewBox="0 0 48 48">
<title>copyright</title>
<path fill="currentColor" d="M35.938 29.563v3.406c0 4.406-7.031 6.031-11.437 6.031-8.562 0-15-6.531-15-15.156 0-8.469 6.375-14.844 14.844-14.844 3.094 0 11.188 1.094 11.188 6.062v3.406c0 0.281-0.219 0.5-0.5 0.5h-3.687c-0.281 0-0.5-0.219-0.5-0.5v-2.188c0-1.969-3.781-2.875-6.344-2.875-5.844 0-9.906 4.219-9.906 10.281 0 6.281 4.25 10.875 10.156 10.875 2.25 0 6.5-0.844 6.5-2.813v-2.188c0-0.281 0.219-0.5 0.469-0.5h3.719c0.25 0 0.5 0.219 0.5 0.5zM24 4c-11.031 0-20 8.969-20 20s8.969 20 20 20 20-8.969 20-20-8.969-20-20-20zM48 24c0 13.25-10.75 24-24 24s-24-10.75-24-24 10.75-24 24-24v0c13.25 0 24 10.75 24 24z"></path>
</svg>
