<svg width="24" height="24" viewBox="0 0 24 24" fill="none" xmlns="http://www.w3.org/2000/svg">
<g clip-path="url(#clip0_3885_1113)">
<path d="M14.3651 0H13.1953V5.03906H17.8594V3.87729L14.3651 0Z" fill="currentColor"/>
<path d="M8.92622 15.3121C8.92312 14.4663 9.49507 13.7787 10.2043 13.7753L17.8594 13.7582V6.98438H12.4239C11.9951 6.98438 11.6484 6.62395 11.6484 6.19695V0H0.776484C0.347672 0 0 0.357398 0 0.784383V23.2078C0 23.6348 0.347672 24 0.776484 24H17.0829C17.5117 24 17.8594 23.6348 17.8594 23.2078V16.8196L10.2171 16.8373C9.50794 16.8406 8.92987 16.1577 8.92622 15.3121Z" fill="currentColor"/>
<path d="M23.2959 14.433L20.2594 11.7166C19.4722 11.2148 18.8324 11.6745 18.8371 12.7371L18.841 13.7561L17.8594 13.7582V16.8196L18.8543 16.8173L18.8589 17.837C18.8629 18.8991 19.507 19.3531 20.2897 18.8448L23.3032 16.2694C24.0862 15.7618 24.0828 14.9353 23.2959 14.433Z" fill="currentColor"/>
</g>
<defs>
<clipPath id="clip0_3885_1113">
<rect width="24" height="24" fill="white"/>
</clipPath>
</defs>
</svg>
