<svg width="24" height="24" viewBox="0 0 24 24" fill="none" xmlns="http://www.w3.org/2000/svg">
<path d="M15.6325 0H14.5631H4.93868C3.8895 0 3.16406 0.589078 3.16406 1.43283V22.209C3.16406 23.0961 4.05588 24 4.93868 24H19.91C20.7496 24 21.3281 23.2633 21.3281 22.209V7.52241V6.44777V3.95639L17.813 0H15.6325ZM19.5703 22.2188H5.01804C4.99087 22.1953 4.94531 22.1565 4.92188 22.1292V1.78125H7.78125V3.14271C7.78125 3.1875 7.82656 3.23438 7.87111 3.23438H9.49188C9.53646 3.23438 9.58594 3.1875 9.58594 3.14271V1.78125H13.8516V6.44775C13.8516 7.33491 14.7497 8.25 15.6325 8.25H19.5703V22.2188ZM19.5703 6.44531H15.7118C15.6847 6.42188 15.6328 6.39563 15.6328 6.36818V1.78125H17.0165L19.5703 4.64062V6.44531Z" fill="currentColor"/>
<path d="M11.3672 3.30785C11.3672 3.26304 11.331 3.23438 11.2864 3.23438H9.6667C9.6221 3.23438 9.58594 3.26304 9.58594 3.30785V4.93554C9.58594 4.98035 9.6221 5.01562 9.6667 5.01562H11.2864C11.331 5.01562 11.3672 4.98035 11.3672 4.93554V3.30785Z" fill="currentColor"/>
<path d="M9.5625 5.09784C9.5625 5.05303 9.52634 5.01562 9.48173 5.01562H7.86202C7.81741 5.01562 7.78125 5.05303 7.78125 5.09784V6.72553C7.78125 6.77034 7.81741 6.79688 7.86202 6.79688H9.48173C9.52634 6.79688 9.5625 6.77034 9.5625 6.72553V5.09784Z" fill="currentColor"/>
<path d="M11.3672 6.88784C11.3672 6.84302 11.331 6.79688 11.2864 6.79688H9.6667C9.6221 6.79688 9.58594 6.84302 9.58594 6.88784V8.5155C9.58594 8.56031 9.6221 8.60156 9.6667 8.60156H11.2864C11.331 8.60156 11.3672 8.56031 11.3672 8.5155V6.88784Z" fill="currentColor"/>
<path d="M10.7087 10.3828H9.58579V8.67818C9.58579 8.63339 9.53631 8.60156 9.49174 8.60156H7.87096C7.82641 8.60156 7.7811 8.63339 7.7811 8.67818V10.3069C7.7811 10.3083 7.78706 10.3092 7.78706 10.3106C7.73552 10.6053 7.1523 13.9355 6.89678 14.7911C6.62945 15.6867 7.16528 17.351 9.21492 17.3807L9.32967 17.3732C11.3793 17.3434 11.9143 15.7345 11.6469 14.8389C11.3796 13.9434 10.7087 10.3828 10.7087 10.3828ZM9.21079 16.241C8.13267 16.241 8.13267 14.5353 9.21079 14.5353C10.2889 14.5353 10.2889 16.241 9.21079 16.241Z" fill="currentColor"/>
</svg>
