<svg width="24" height="24" viewBox="0 0 24 24" fill="none" xmlns="http://www.w3.org/2000/svg">
<path d="M15.6414 0H14.5692H4.91941C3.86742 0 3.11719 0.603047 3.11719 1.44555V22.1905C3.11719 23.0763 4.0343 24 4.91941 24H19.9302C20.772 24 21.375 23.2432 21.375 22.1905V7.52597V6.45293V3.96532L17.8276 0H15.6414ZM19.5703 22.2188H4.99898C4.97175 22.1953 4.92188 22.1381 4.92188 22.1108V1.78125H13.8516V6.45293C13.8516 7.33873 14.7563 8.22656 15.6414 8.22656H19.5703V22.2188ZM19.5703 6.44531H15.721C15.6937 6.44531 15.6562 6.4009 15.6562 6.37331V1.78125H17.0291L19.5703 4.64852V6.44531Z" fill="currentColor"/>
<path d="M16.6985 13.0439C16.4708 12.8162 16.104 12.8162 15.8763 13.0439L13.5938 15.3284V13.6507C13.5938 13.2827 13.2954 12.9844 12.9274 12.9844H7.93193C7.56394 12.9844 7.26562 13.2827 7.26562 13.6507V18.6462C7.26562 19.0142 7.56394 19.3125 7.93193 19.3125H12.9275C13.2954 19.3125 13.5938 19.0142 13.5938 18.6462V16.9449L15.8785 19.2294C16.1062 19.4571 16.4711 19.4571 16.6985 19.2294L16.7344 19.189V13.0843L16.6985 13.0439Z" fill="currentColor"/>
</svg>
