<svg width="24" height="24" viewBox="0 0 24 24" fill="none" xmlns="http://www.w3.org/2000/svg">
<path d="M15.6414 0H14.5692H4.91941C3.86742 0 3.11719 0.603047 3.11719 1.44555V22.1905C3.11719 23.0763 4.0343 24 4.91941 24H19.9302C20.772 24 21.375 23.2432 21.375 22.1905V7.52597V6.45293V3.96532L17.8276 0H15.6414ZM19.5703 22.2188H4.99898C4.97175 22.1953 4.92188 22.1381 4.92188 22.1108V1.78125H13.8516V6.45293C13.8516 7.33873 14.7563 8.22656 15.6414 8.22656H19.5703V22.2188ZM19.5703 6.44531H15.721C15.6937 6.44531 15.6562 6.4009 15.6562 6.37331V1.78125H17.0291L19.5703 4.64852V6.44531Z" fill="currentColor"/>
<path d="M13.693 12.7202C13.4832 12.9417 13.4832 13.3168 13.693 13.5284C14.761 14.5973 14.761 16.3193 13.693 17.378C13.4832 17.5997 13.4832 17.9696 13.693 18.1866C13.806 18.3004 13.954 18.3525 14.0915 18.3525C14.2371 18.3525 14.3875 18.2924 14.4964 18.176C16.0167 16.6853 16.0167 14.2281 14.5083 12.7202C14.2898 12.5033 13.9198 12.5033 13.693 12.7202Z" fill="currentColor"/>
<path d="M8.13281 13.7548V17.1694C8.13281 17.4342 8.42428 17.5547 8.68746 17.5547H9.9375V13.2656H8.68746C8.42428 13.2656 8.13281 13.4817 8.13281 13.7548Z" fill="currentColor"/>
<path d="M12.1039 11.9221L10.6406 13.1065V17.817L12.1039 18.9938C12.4341 19.2386 12.7734 19.0109 12.7734 18.6005V12.3168C12.7734 11.906 12.4166 11.6783 12.1039 11.9221Z" fill="currentColor"/>
</svg>
