<svg width="24" height="24" viewBox="0 0 24 24" fill="none" xmlns="http://www.w3.org/2000/svg">
<g clip-path="url(#clip0_3885_1126)">
<path d="M20.0839 0H18.9141V5.03906H23.5781V3.87729L20.0839 0Z" fill="currentColor"/>
<path d="M18.1427 6.98438C17.7139 6.98438 17.3672 6.62395 17.3672 6.19695V0H6.49523C6.06642 0 5.71875 0.357398 5.71875 0.784383V12.3594L9.20346 12.3496L9.19917 11.2523C9.19416 10.108 9.88317 9.61291 10.7308 10.1533L14.0009 13.0786C14.8483 13.6195 14.852 14.5096 14.0088 15.0562L10.7635 17.8296C9.92062 18.3769 9.22709 17.8881 9.22254 16.7442L9.21776 15.6462L5.71875 15.6564V23.2078C5.71875 23.6348 6.06642 24 6.49523 24H22.8016C23.2304 24 23.5781 23.6348 23.5781 23.2078V6.98438H18.1427Z" fill="currentColor"/>
<path d="M1.80995 12.3704C1.04624 12.3739 0.430279 13.1144 0.433607 14.0252C0.437545 14.9359 1.06007 15.6713 1.82366 15.6677L5.71874 15.6564V12.3594L1.80995 12.3704Z" fill="currentColor"/>
</g>
<defs>
<clipPath id="clip0_3885_1126">
<rect width="24" height="24" fill="white"/>
</clipPath>
</defs>
</svg>
