<svg width="24" height="24" viewBox="0 0 24 24" fill="none" xmlns="http://www.w3.org/2000/svg">
<path d="M15.4942 6.98438C15.0654 6.98438 14.7188 6.62395 14.7188 6.19695V0H3.8468C3.41798 0 3.07031 0.357398 3.07031 0.784383V23.2078C3.07031 23.6348 3.41798 24 3.8468 24H20.1532C20.582 24 20.9297 23.6348 20.9297 23.2078V6.98438H15.4942ZM8.26563 20.8545V9.39816H11.9097C13.6587 9.39816 14.9535 9.70235 15.7909 10.3097C16.628 10.917 17.0462 11.866 17.0462 13.1573C17.0462 14.3172 16.6442 15.2231 15.8401 15.8731C15.0361 16.524 13.9223 16.8495 12.4993 16.8495H11.3175V20.8545H8.26563ZM11.3175 11.565V14.6832H12.1058C13.3642 14.6832 13.9928 14.158 13.9928 13.1076C13.9928 12.079 13.3642 11.565 12.1058 11.565H11.3175Z" fill="currentColor"/>
<path d="M17.4355 0H16.2656V5.03906H20.9297V3.87729L17.4355 0Z" fill="currentColor"/>
</svg>
