<svg width="24" height="24" viewBox="0 0 24 24" fill="none" xmlns="http://www.w3.org/2000/svg">
<path d="M15.6414 0H14.5692H4.91941C3.86742 0 3.11719 0.603047 3.11719 1.44555V22.1905C3.11719 23.0763 4.0343 24 4.91941 24H19.9302C20.772 24 21.375 23.2432 21.375 22.1905V7.52597V6.45293V3.96532L17.8276 0H15.6414ZM19.5703 22.2188H4.99898C4.97175 22.1953 4.92188 22.1381 4.92188 22.1108V1.78125H13.8516V6.45293C13.8516 7.33873 14.7563 8.22656 15.6414 8.22656H19.5703V22.2188ZM19.5703 6.44531H15.721C15.6937 6.44531 15.6562 6.4009 15.6562 6.37331V1.78125H17.0291L19.5703 4.64852V6.44531Z" fill="currentColor"/>
<path d="M8.50244 20.0875V10.3181H11.6099C13.1014 10.3181 14.2055 10.5775 14.9197 11.0955C15.6334 11.6134 15.9901 12.4226 15.9901 13.5237C15.9901 14.5128 15.6473 15.2854 14.9616 15.8396C14.2759 16.3947 13.3262 16.6723 12.1127 16.6723H11.105V20.0876L8.50244 20.0875ZM11.105 12.1658V14.825H11.7772C12.8502 14.825 13.3863 14.3771 13.3863 13.4814C13.3863 12.6042 12.8502 12.1658 11.7772 12.1658H11.105Z" fill="currentColor"/>
</svg>
