<svg width="24" height="24" viewBox="0 0 24 24" fill="none" xmlns="http://www.w3.org/2000/svg">
<path d="M15.4645 0H14.4075H4.89396C3.85683 0 3.11719 0.603047 3.11719 1.44555V22.1905C3.11719 23.0763 4.02135 24 4.89396 24H19.6928C20.5227 24 21.1172 23.2432 21.1172 22.1905V7.52597V6.45293V3.96532L17.6199 0H15.4645ZM19.338 22.2188H4.97241C4.94556 22.1953 4.89639 22.1381 4.89639 22.1108V1.78125H13.7V6.45293C13.7 7.33873 14.5919 8.22656 15.4645 8.22656H19.338V22.2188ZM19.338 6.44531H15.543C15.5161 6.44531 15.4792 6.4009 15.4792 6.37331V1.78125H16.8326L19.338 4.64852V6.44531Z" fill="currentColor"/>
<path d="M8.37744 18.6177L10.6292 14.9082L8.61657 11.5631H10.7788L11.9446 13.8876L13.14 11.5631H15.1728L13.14 14.9082L15.372 18.6177H13.1601L11.8148 16.0203L10.4796 18.6177H8.37744Z" fill="currentColor"/>
</svg>
