<svg width="24" height="24" viewBox="0 0 24 24" fill="none" xmlns="http://www.w3.org/2000/svg">
<path d="M0 3.66667C0 2.19583 1.19583 1 2.66667 1H9.33333V6.33333C9.33333 7.07083 9.92917 7.66667 10.6667 7.66667H16V9.275C12.9208 10.1458 10.6667 12.975 10.6667 16.3333C10.6667 18.7958 11.8792 20.9708 13.7375 22.3042C13.6042 22.325 13.4708 22.3333 13.3333 22.3333H2.66667C1.19583 22.3333 0 21.1375 0 19.6667V3.66667ZM16 6.33333H10.6667V1L16 6.33333ZM12 16.3333C12 14.742 12.6321 13.2159 13.7574 12.0907C14.8826 10.9655 16.4087 10.3333 18 10.3333C19.5913 10.3333 21.1174 10.9655 22.2426 12.0907C23.3679 13.2159 24 14.742 24 16.3333C24 17.9246 23.3679 19.4508 22.2426 20.576C21.1174 21.7012 19.5913 22.3333 18 22.3333C16.4087 22.3333 14.8826 21.7012 13.7574 20.576C12.6321 19.4508 12 17.9246 12 16.3333ZM20.8042 14.5292C20.5458 14.2708 20.1208 14.2708 19.8625 14.5292L17.3333 17.0583L16.1375 15.8625C15.8792 15.6042 15.4542 15.6042 15.1958 15.8625C14.9375 16.1208 14.9375 16.5458 15.1958 16.8042L16.8625 18.4708C17.1208 18.7292 17.5458 18.7292 17.8042 18.4708L20.8042 15.4708C21.0625 15.2125 21.0625 14.7875 20.8042 14.5292Z" fill="currentColor"/>
</svg>
