<svg width="24" height="24" viewBox="0 0 24 24" fill="none" xmlns="http://www.w3.org/2000/svg">
<path d="M15.4942 6.98438C15.0654 6.98438 14.7188 6.62395 14.7188 6.19695V0H3.8468C3.41798 0 3.07031 0.357398 3.07031 0.784383V23.2078C3.07031 23.6348 3.41798 24 3.8468 24H20.1532C20.582 24 20.9297 23.6348 20.9297 23.2078V6.98438H15.4942ZM16.5057 21.3281H13.3005L11.9727 14.2266H11.9465L10.7124 21.3281H7.48097L5.40234 11.6953H7.9503L9.15713 18.7969H9.1849L10.4448 11.6953H13.6098L14.9231 18.7969H14.9499L16.1706 11.6953H18.5977L16.5057 21.3281Z" fill="currentColor"/>
<path d="M17.4355 0H16.2656V5.03906H20.9297V3.87729L17.4355 0Z" fill="currentColor"/>
</svg>
