<svg width="24" height="24" viewBox="0 0 24 24" fill="none" xmlns="http://www.w3.org/2000/svg">
<path d="M15.6414 0H14.5692H4.91941C3.86742 0 3.11719 0.603047 3.11719 1.44555V22.1905C3.11719 23.0763 4.0343 24 4.91941 24H19.9302C20.772 24 21.375 23.2432 21.375 22.1905V7.52597V6.45293V3.96532L17.8276 0H15.6414ZM19.5703 22.2188H4.99898C4.97175 22.1953 4.92188 22.1381 4.92188 22.1108V1.78125H13.8516V6.45293C13.8516 7.33873 14.7563 8.22656 15.6414 8.22656H19.5703V22.2188ZM19.5703 6.44531H15.721C15.6937 6.44531 15.6562 6.4009 15.6562 6.37331V1.78125H17.0291L19.5703 4.64852V6.44531Z" fill="currentColor"/>
<path d="M14.6083 15.513C14.3222 15.355 14.0461 15.1817 13.8098 14.9538C13.1759 14.3421 12.7265 13.612 12.4139 12.7929C12.4016 12.7617 12.3966 12.7229 12.4019 12.69C12.4404 12.4657 12.4915 12.244 12.5217 12.0193C12.5977 11.4504 12.6654 10.8803 12.7361 10.3111C12.7285 10.3104 12.7205 10.3091 12.7129 10.3081C12.7129 10.2095 12.7145 10.11 12.7125 10.0117C12.7079 9.80001 12.6508 9.60419 12.5293 9.43029C12.4367 9.29819 12.3203 9.19265 12.1547 9.17639C12.0216 9.16277 11.8848 9.16146 11.7521 9.1754C11.4511 9.20693 11.2636 9.38383 11.2012 9.67919C11.1192 10.0715 11.1354 10.4647 11.1796 10.8587C11.2576 11.541 11.4162 12.2071 11.5921 12.8685C11.6187 12.9697 11.6114 13.0567 11.5709 13.153C11.0233 14.4499 10.3655 15.6915 9.67389 16.9155C9.65396 16.9523 9.61515 16.9825 9.57765 17.0031C9.36524 17.1199 9.14987 17.2301 8.93778 17.3476C8.4174 17.6366 7.93152 17.9728 7.52432 18.4112C7.32948 18.6213 7.15759 18.848 7.08655 19.1324C7.0434 19.3047 7.0381 19.4868 7.19673 19.6007C7.366 19.7205 7.55317 19.821 7.76624 19.8513C8.01648 19.8867 8.23818 19.8028 8.44593 19.6727C8.73334 19.4921 8.96432 19.2502 9.17905 18.9914C9.63669 18.4385 10.0091 17.8288 10.3728 17.2128C10.3987 17.1693 10.4485 17.1259 10.4963 17.1099C11.7169 16.72 12.9588 16.4183 14.2256 16.2188C14.3019 16.2062 14.3633 16.2195 14.4294 16.2556C14.9806 16.5557 15.5588 16.7897 16.1657 16.9503C16.5338 17.0478 16.9062 17.1198 17.2898 17.106C17.6649 17.0913 17.8882 16.9251 17.9622 16.5796C17.9937 16.4322 17.9921 16.2773 17.9941 16.1252C17.9964 15.9351 17.8918 15.7947 17.7428 15.6941C17.6449 15.6281 17.5334 15.5786 17.4206 15.5414C17.1312 15.4489 16.8292 15.4259 16.5265 15.4166C15.9391 15.3987 15.3546 15.4472 14.7725 15.5206C14.7178 15.5276 14.6507 15.5375 14.6083 15.513ZM7.76293 19.3378C7.75365 19.3315 7.745 19.3259 7.73572 19.3196C7.75431 19.2784 7.76626 19.232 7.79214 19.1948C7.95807 18.9585 8.10742 18.7053 8.30026 18.4925C8.59464 18.169 8.92021 17.8733 9.23183 17.5653C9.24311 17.5759 9.25407 17.5855 9.26502 17.5964C8.82957 18.2337 8.42868 18.9001 7.76293 19.3378ZM11.9214 9.78438C11.926 9.71634 11.936 9.64765 11.9519 9.58094C11.9698 9.50693 12.012 9.48968 12.0681 9.54079C12.1192 9.5876 12.1726 9.64699 12.1922 9.71137C12.2453 9.8876 12.2971 10.0672 12.3213 10.2487C12.382 10.7027 12.3482 11.1491 12.1557 11.5735C12.1384 11.6117 12.1192 11.6479 12.1006 11.685C12.0903 11.685 12.08 11.6864 12.07 11.6864C12.0349 11.5025 11.9931 11.3197 11.9665 11.1348C11.9028 10.6864 11.8865 10.2364 11.9214 9.78438ZM10.7432 16.4993C11.2112 15.647 11.6605 14.7905 12.0136 13.8629C12.4192 14.5923 12.9243 15.21 13.5854 15.7227C12.6064 15.9202 11.6652 16.1614 10.7432 16.4993ZM15.7114 16.0433C15.8747 16.0366 16.038 16.0273 16.2013 16.0241C16.5657 16.0148 16.9311 16.0074 17.2838 16.1213C17.3847 16.1535 17.483 16.2033 17.5682 16.264C17.6071 16.2909 17.6303 16.3665 17.6263 16.4176C17.6233 16.4459 17.5527 16.4844 17.5089 16.4903C17.3794 16.507 17.246 16.5255 17.1172 16.5146C16.6144 16.4741 16.1667 16.2543 15.7081 16.0725C15.7094 16.0625 15.7101 16.0529 15.7114 16.0433Z" fill="currentColor"/>
</svg>
