<svg width="24" height="24" viewBox="0 0 24 24" fill="none" xmlns="http://www.w3.org/2000/svg">
<g clip-path="url(#clip0_3885_1129)">
<path d="M16.9208 10.6823H4.57877C4.43702 10.6823 4.32227 10.5675 4.32227 10.4258C4.32227 10.284 4.43702 10.1693 4.57877 10.1693H16.9208C17.0625 10.1693 17.1773 10.284 17.1773 10.4258C17.1773 10.5675 17.0625 10.6823 16.9208 10.6823Z" fill="currentColor"/>
<path d="M8.94881 8.07675H4.99781C4.61756 8.07675 4.31006 7.7685 4.31006 7.38825V3.90975C4.31006 3.5295 4.61831 3.222 4.99856 3.222H8.94956C9.32981 3.222 9.63806 3.53025 9.63806 3.9105V7.38825C9.63806 7.7685 9.32981 8.07675 8.95031 8.07675H8.94881Z" fill="currentColor"/>
<path d="M21.9725 10.4273C21.3808 9.918 20.4853 9.984 19.9753 10.5758L10.5463 21.5228C10.502 21.5745 10.4743 21.6375 10.466 21.705L10.2373 23.6175C10.2238 23.7308 10.2673 23.8425 10.3535 23.9168C10.4165 23.9708 10.4953 23.9993 10.5763 23.9993C10.6063 23.9993 10.637 23.9955 10.667 23.9873L12.524 23.478C12.5893 23.46 12.6485 23.4233 12.6928 23.3715L22.1218 12.4245C22.6318 11.8328 22.5643 10.9365 21.9725 10.4273Z" fill="currentColor"/>
<path d="M4.57974 15.5145C4.43799 15.5145 4.32324 15.6292 4.32324 15.771C4.32324 15.9127 4.43799 16.0275 4.57974 16.0275H14.6042L15.0452 15.5152H4.57899L4.57974 15.5145Z" fill="currentColor"/>
<path d="M16.9208 12.8423H4.57877C4.43702 12.8423 4.32227 12.957 4.32227 13.0988C4.32227 13.2405 4.43702 13.3553 4.57877 13.3553H16.905L17.1713 13.0463C17.1473 12.9308 17.0438 12.843 16.9208 12.843V12.8423Z" fill="currentColor"/>
<path d="M4.57974 18.1868C4.43799 18.1868 4.32324 18.3015 4.32324 18.4433C4.32324 18.585 4.43799 18.6998 4.57974 18.6998H12.3025L12.7435 18.1875H4.57899L4.57974 18.1868Z" fill="currentColor"/>
<path d="M19.6951 10.1288V6.43425C19.6951 6.417 19.6936 6.4005 19.6899 6.384C19.6996 6.43275 19.6951 6.48375 19.6756 6.53175C19.6359 6.62775 19.5429 6.69 19.4386 6.69H19.1821V10.7108L19.5864 10.2413C19.6209 10.2015 19.6576 10.1648 19.6944 10.128L19.6951 10.1288Z" fill="currentColor"/>
<path d="M19.1821 20.0407C19.1821 21.1455 18.2836 22.044 17.1788 22.044H14.5118L14.0708 22.5562H17.1788C18.5656 22.5562 19.6943 21.4275 19.6943 20.0407V16.0267L19.1821 16.6215V20.04V20.0407Z" fill="currentColor"/>
<path d="M4.05163 22.044C2.94688 22.044 2.04838 21.1455 2.04838 20.0408V2.51551C2.04838 1.4115 2.94688 0.512255 4.05163 0.512255H13.0044V0.255755C13.0044 0.152255 13.0666 0.0585046 13.1626 0.0187546C13.2099 -0.000745361 13.2616 -0.00524536 13.3104 0.00375464C13.2939 0.000754639 13.2781 -0.00149536 13.2609 -0.00149536H4.05163C2.66488 -0.00149536 1.53613 1.12725 1.53613 2.514V20.0393C1.53613 21.426 2.66488 22.5548 4.05163 22.5548H9.84763L9.90913 22.0425H4.05163V22.044Z" fill="currentColor"/>
<path d="M10.2556 21.0758H4.05164C3.48089 21.0758 3.01664 20.6115 3.01664 20.0415V2.51626C3.01664 1.94551 3.48089 1.48201 4.05164 1.48201H13.0044V0.969757H4.05164C3.19814 0.969757 2.50439 1.66351 2.50439 2.51701V20.0423C2.50439 20.895 3.19814 21.5895 4.05164 21.5895H9.96389L9.9879 21.3878L10.2556 21.0773V21.0758Z" fill="currentColor"/>
<path d="M18.726 20.0407V17.1517L18.2137 17.7465V20.0407C18.2137 20.6115 17.7495 21.075 17.1795 21.075H15.3472L14.9062 21.5872H17.1802C18.033 21.5872 18.7275 20.8935 18.7275 20.04L18.726 20.0407Z" fill="currentColor"/>
<path d="M18.7261 6.69075H18.2139V11.8358L18.7261 11.241V6.69075Z" fill="currentColor"/>
<path d="M19.6194 6.25346L13.4416 0.0749589C13.3681 0.00145888 13.2579 -0.0202911 13.1626 0.0194589C13.0674 0.0592089 13.0044 0.152209 13.0044 0.256459V4.58171C13.0044 5.74496 13.9509 6.69146 15.1134 6.69146H19.4386C19.5421 6.69146 19.6359 6.62921 19.6756 6.53321C19.7154 6.43721 19.6936 6.32696 19.6201 6.25421L19.6194 6.25346ZM13.5166 4.58096V0.874459L18.8199 6.17771H15.1134C14.2329 6.17771 13.5166 5.46146 13.5166 4.58096Z" fill="currentColor"/>
</g>
<defs>
<clipPath id="clip0_3885_1129">
<rect width="24" height="24" fill="white"/>
</clipPath>
</defs>
</svg>
