<svg width="24" height="24" viewBox="0 0 24 24" fill="none" xmlns="http://www.w3.org/2000/svg">
<g clip-path="url(#clip0_3885_1116)">
<path fill-rule="evenodd" clip-rule="evenodd" d="M15.0647 6.19498V0H4.30563C3.88122 0 3.53711 0.346734 3.53711 0.774375V23.2312C3.53711 23.6589 3.88122 24.0056 4.30563 24.0056H20.4442C20.8686 24.0056 21.2127 23.6589 21.2127 23.2312V6.96935H15.8332C15.4088 6.96935 15.0647 6.62264 15.0647 6.19498ZM8.27123 17.2298L8.14813 17.238C5.93868 17.2058 5.3623 15.4069 5.65052 14.439C5.9387 13.471 6.73647 9.57077 6.73647 9.57077V7.95776C6.73647 7.90936 6.77549 7.87003 6.82352 7.87003H8.65771V6.06872H6.82352C6.77547 6.06872 6.73647 6.02939 6.73647 5.98099V4.08588C6.73647 4.03751 6.77549 3.99816 6.82352 3.99816H8.65771V2.19682H6.82352C6.77547 2.19682 6.73647 2.15749 6.73647 2.10909V0.214008C6.73647 0.165609 6.77549 0.126281 6.82352 0.126281H8.70426C8.75228 0.126281 8.79133 0.165609 8.79133 0.214008V2.06222H10.6255C10.6735 2.06222 10.7126 2.10155 10.7126 2.14995V4.04503C10.7126 4.09343 10.6735 4.13276 10.6255 4.13276H8.79133V5.93409H10.6255C10.6735 5.93409 10.7126 5.9734 10.7126 6.02182V7.91691C10.7126 7.9653 10.6735 8.00463 10.6255 8.00463H8.79133V9.57075H9.75719C9.75719 9.57075 10.4807 13.471 10.7689 14.439C11.0571 15.4069 10.4807 17.1977 8.27123 17.2298Z" fill="currentColor"/>
<path fill-rule="evenodd" clip-rule="evenodd" d="M8.11579 14.1624C6.93601 14.1624 6.93601 16.006 8.11579 16.006C9.29596 16.006 9.29596 14.1624 8.11579 14.1624Z" fill="currentColor"/>
<path fill-rule="evenodd" clip-rule="evenodd" d="M17.7543 0H16.6016V5.03341H21.2126V3.87185L17.7543 0Z" fill="currentColor"/>
</g>
<defs>
<clipPath id="clip0_3885_1116">
<rect width="24" height="24" fill="white"/>
</clipPath>
</defs>
</svg>
