<svg width="24" height="24" viewBox="0 0 24 24" fill="none" xmlns="http://www.w3.org/2000/svg">
<path d="M14.7188 6.19695V0H3.8468C3.41798 0 3.07031 0.357398 3.07031 0.784383V23.2078C3.07031 23.6348 3.41798 24 3.8468 24H20.1532C20.582 24 20.9297 23.6348 20.9297 23.2078V6.98438H15.4942C15.0654 6.98438 14.7188 6.62395 14.7188 6.19695ZM8.64844 18.1875H7.26326C6.97739 18.1875 6.70312 18.0286 6.70312 17.7424V14.0515C6.70312 13.7562 6.97739 13.5234 7.26326 13.5234H8.64844V18.1875ZM11.7422 19.2892C11.7422 19.7329 11.3718 19.979 11.0131 19.7143L9.42188 18.4424V13.3507L11.0131 12.0705C11.3529 11.8066 11.7422 12.0531 11.7422 12.4967V19.2892ZM13.134 19.0211C12.9846 19.0211 12.8239 18.9649 12.701 18.8418C12.4731 18.6074 12.4731 18.2075 12.701 17.9678C13.8612 16.8235 13.8612 14.9621 12.701 13.8068C12.4731 13.578 12.4731 13.1725 12.701 12.9332C12.9474 12.6987 13.3493 12.6987 13.5867 12.9332C15.2254 14.5627 15.2254 17.2191 13.5738 18.8305C13.4555 18.9558 13.2921 19.0211 13.134 19.0211ZM15.1404 20.2448C15.0373 20.3595 14.8705 20.4151 14.7097 20.4151C14.5596 20.4151 14.4049 20.3596 14.282 20.2372C14.0371 19.9979 14.0371 19.5981 14.282 19.3636C15.2049 18.4348 15.7213 17.212 15.7213 15.8909C15.7213 14.5868 15.2049 13.3507 14.282 12.4212C14.0371 12.1935 14.0371 11.7076 14.282 11.4732C14.3935 11.3606 14.549 11.2266 14.7002 11.2266H14.7192C14.8705 11.2266 15.0373 11.3606 15.1405 11.4841C16.3086 12.6473 16.9505 14.2238 16.9505 15.8639C16.9505 17.5055 16.301 19.0872 15.1404 20.2448Z" fill="currentColor"/>
<path d="M17.4355 0H16.2656V5.03906H20.9297V3.87729L17.4355 0Z" fill="currentColor"/>
</svg>
