<svg width="24" height="24" viewBox="0 0 24 24" fill="none" xmlns="http://www.w3.org/2000/svg">
<g clip-path="url(#clip0_3885_1109)">
<path d="M2.66667 0C1.19583 0 0 1.34531 0 3V21C0 22.6547 1.19583 24 2.66667 24H13.3333C14.8042 24 16 22.6547 16 21V20.0953C15.8875 20.1469 15.775 20.1891 15.6583 20.2219L13.1542 20.925C13.0292 20.9578 12.9042 20.9812 12.7792 20.9906C12.7417 20.9953 12.7042 21 12.6667 21H10C9.74583 21 9.51667 20.8406 9.40417 20.5875L9.0375 19.7578C8.96667 19.5984 8.825 19.5 8.67083 19.5C8.51667 19.5 8.37083 19.5984 8.30417 19.7578L7.9375 20.5875C7.81667 20.8641 7.55417 21.0281 7.28333 21C7.0125 20.9719 6.77917 20.7609 6.70417 20.4703L6 17.8594L5.59167 19.3969C5.3375 20.3484 4.55833 21 3.675 21H3.33333C2.96667 21 2.66667 20.6625 2.66667 20.25C2.66667 19.8375 2.96667 19.5 3.33333 19.5H3.675C3.97083 19.5 4.22917 19.2844 4.3125 18.9656L4.93333 16.6453C5.075 16.1156 5.50833 15.75 6 15.75C6.49167 15.75 6.925 16.1156 7.06667 16.6453L7.55 18.4547C7.85833 18.1641 8.25 18 8.66667 18C9.32917 18 9.93333 18.4219 10.2292 19.0875L10.4125 19.5H10.7833C10.6542 19.0875 10.6292 18.6375 10.725 18.1969L11.35 15.3797C11.4667 14.85 11.7083 14.3719 12.05 13.9875L16 9.54375V7.5H10.6667C9.92917 7.5 9.33333 6.82969 9.33333 6V0H2.66667ZM10.6667 0V6H16L10.6667 0ZM22.9083 6.54844C22.2583 5.81719 21.2042 5.81719 20.55 6.54844L19.325 7.92656L22.2833 11.2547L23.5083 9.87656C24.1583 9.14531 24.1583 7.95938 23.5083 7.22344L22.9083 6.54844ZM12.9958 15.0469C12.825 15.2391 12.7042 15.4781 12.6458 15.7453L12.0208 18.5625C11.9625 18.8203 12.0292 19.0875 12.1958 19.275C12.3625 19.4625 12.6 19.5375 12.8292 19.4719L15.3333 18.7687C15.5667 18.7031 15.7833 18.5672 15.9542 18.375L21.3375 12.3141L18.3792 8.98594L12.9958 15.0469Z" fill="currentColor"/>
</g>
<defs>
<clipPath id="clip0_3885_1109">
<rect width="24" height="24" fill="white"/>
</clipPath>
</defs>
</svg>
