<svg width="24" height="24" viewBox="0 0 24 24" fill="none" xmlns="http://www.w3.org/2000/svg">
<path d="M14.7188 6.19695V0H3.8468C3.41798 0 3.07031 0.357398 3.07031 0.784383V23.2078C3.07031 23.6348 3.41798 24 3.8468 24H20.1532C20.582 24 20.9297 23.6348 20.9297 23.2078V6.98438H15.4942C15.0654 6.98438 14.7188 6.62395 14.7188 6.19695ZM7.88527 8.48564C9.46573 8.48564 10.7469 9.7668 10.7469 11.3473C10.7469 12.9277 9.46573 14.2089 7.88527 14.2089C6.3048 14.2089 5.02364 12.9277 5.02364 11.3473C5.02364 9.7668 6.30478 8.48564 7.88527 8.48564ZM19.2891 16.0193V22.1016H4.78125V19.7569L7.67646 16.9537L10.5695 19.9321L16.7689 13.3913L19.2891 16.0193Z" fill="currentColor"/>
<path d="M17.4355 0H16.2656V5.03906H20.9297V3.87729L17.4355 0Z" fill="currentColor"/>
</svg>
