<svg width="24" height="24" viewBox="0 0 24 24" fill="none" xmlns="http://www.w3.org/2000/svg">
<path d="M15.4942 6.98438C15.0654 6.98438 14.7188 6.62395 14.7188 6.19695V0H3.8468C3.41798 0 3.07031 0.357398 3.07031 0.784383V23.2078C3.07031 23.6348 3.41798 24 3.8468 24H20.1532C20.582 24 20.9297 23.6348 20.9297 23.2078V6.98438H15.4942ZM7.97726 14.7062L11.041 11.2812C11.6075 10.3937 12.5398 10.3898 13.1122 11.2729L16.017 14.672C16.5903 15.5547 16.0783 16.2811 14.8803 16.2857L13.7303 16.2908L13.7528 18.9235C13.7565 19.7233 12.9863 20.3752 12.0325 20.3794C11.0785 20.3829 10.303 19.7378 10.2993 18.9379L10.2776 16.3058L9.12827 16.3102C7.92975 16.3156 7.41124 15.5939 7.97726 14.7062Z" fill="currentColor"/>
<path d="M17.4355 0H16.2656V5.03906H20.9297V3.87729L17.4355 0Z" fill="currentColor"/>
</svg>
