<svg width="24" height="24" viewBox="0 0 24 24" fill="none" xmlns="http://www.w3.org/2000/svg">
<path d="M6 0C4.34531 0 3 1.34531 3 3V21C3 22.6547 4.34531 24 6 24H18C19.6547 24 21 22.6547 21 21V7.5H15C14.1703 7.5 13.5 6.82969 13.5 6V0H6ZM15 0V6H21L15 0ZM6.75 3H9.75C10.1625 3 10.5 3.3375 10.5 3.75C10.5 4.1625 10.1625 4.5 9.75 4.5H6.75C6.3375 4.5 6 4.1625 6 3.75C6 3.3375 6.3375 3 6.75 3ZM6.75 6H9.75C10.1625 6 10.5 6.3375 10.5 6.75C10.5 7.1625 10.1625 7.5 9.75 7.5H6.75C6.3375 7.5 6 7.1625 6 6.75C6 6.3375 6.3375 6 6.75 6ZM9.29062 17.8969C9.00469 18.8484 8.12812 19.5 7.13437 19.5H6.75C6.3375 19.5 6 19.1625 6 18.75C6 18.3375 6.3375 18 6.75 18H7.13437C7.46719 18 7.75781 17.7844 7.85156 17.4656L8.55 15.1453C8.70937 14.6156 9.19688 14.25 9.75 14.25C10.3031 14.25 10.7906 14.6109 10.95 15.1453L11.4937 16.9547C11.8406 16.6641 12.2812 16.5 12.75 16.5C13.4953 16.5 14.175 16.9219 14.5078 17.5875L14.7141 18H17.25C17.6625 18 18 18.3375 18 18.75C18 19.1625 17.6625 19.5 17.25 19.5H14.25C13.9641 19.5 13.7063 19.3406 13.5797 19.0875L13.1672 18.2578C13.0875 18.0984 12.9281 18 12.7547 18C12.5813 18 12.4172 18.0984 12.3422 18.2578L11.9297 19.0875C11.7937 19.3641 11.4984 19.5281 11.1938 19.5C10.8891 19.4719 10.6266 19.2609 10.5422 18.9703L9.75 16.3594L9.29062 17.8969Z" fill="currentColor"/>
</svg>
