<svg width="24" height="24" viewBox="0 0 24 24" fill="none" xmlns="http://www.w3.org/2000/svg">
<path d="M6 0C4.3455 0 3 1.3455 3 3V21C3 22.6545 4.3455 24 6 24H18C19.6545 24 21 22.6545 21 21V7.5H15C14.1705 7.5 13.5 6.8295 13.5 6V0H6ZM15 0V6H21L15 0ZM10.1722 13.5472L8.71875 15.0007L10.1722 16.4543C10.6132 16.8945 10.6132 17.6078 10.1722 18.0435C9.73125 18.4792 9.0195 18.4838 8.583 18.0435L6.3285 15.798C5.88825 15.3577 5.88825 14.6445 6.3285 14.2087L8.5785 11.9587C9.0195 11.5177 9.73125 11.5177 10.1678 11.9587C10.6043 12.3997 10.6088 13.1122 10.1678 13.548L10.1722 13.5472ZM15.4222 11.9535L17.6722 14.2035C18.1125 14.6438 18.1125 15.357 17.6722 15.7927L15.4222 18.0427C14.9812 18.483 14.2695 18.483 13.833 18.0427C13.3965 17.6025 13.392 16.8892 13.833 16.4535L15.2865 15L13.833 13.5465C13.392 13.1062 13.392 12.393 13.833 11.9572C14.274 11.5215 14.9858 11.5162 15.4222 11.9572V11.9535Z" fill="currentColor"/>
</svg>
