<svg width="24" height="24" viewBox="0 0 24 24" fill="none" xmlns="http://www.w3.org/2000/svg">
<path d="M13.9402 7.49532H5.49707V9.25618H13.9402V7.49532Z" fill="currentColor"/>
<path d="M18.5035 11.1194H5.49707V12.8803H18.5035V11.1194Z" fill="currentColor"/>
<path d="M13.9402 14.7438H5.49707V16.5047H13.9402V14.7438Z" fill="currentColor"/>
<path d="M18.5035 18.3682H5.49707V20.1291H18.5035V18.3682Z" fill="currentColor"/>
<path d="M22.0157 6.10266L16.1709 0.257812C16.1706 0.257578 16.1704 0.257344 16.1702 0.257344L15.913 0H4.08977C2.78664 0 1.72656 1.06008 1.72656 2.36297V21.637C1.72656 22.9399 2.78664 24 4.08953 24H19.9105C21.2134 24 22.2735 22.9399 22.2735 21.637V6.3607L22.0162 6.10336C22.0162 6.10313 22.0159 6.10289 22.0157 6.10266ZM16.4287 3.00609L19.2674 5.84484H17.0308C16.6987 5.84484 16.4287 5.57484 16.4287 5.24297V3.00609ZM20.5127 21.637C20.5127 21.9691 20.2427 22.2391 19.9108 22.2391H4.08977C3.75766 22.2391 3.48766 21.9691 3.48766 21.637V2.36297C3.48766 2.03109 3.75766 1.76109 4.08977 1.76109H14.6678V5.24297C14.6678 6.54586 15.7279 7.60594 17.0308 7.60594H20.5127V21.637Z" fill="currentColor"/>
</svg>
