<svg width="24" height="24" viewBox="0 0 24 24" fill="none" xmlns="http://www.w3.org/2000/svg">
<path d="M11.4588 11.8227C11.4706 11.8227 11.4828 11.8211 11.495 11.8211C11.517 11.7772 11.5397 11.7344 11.5602 11.6892C11.7879 11.187 11.8279 10.659 11.7561 10.1218C11.7274 9.90705 11.6662 9.69461 11.6034 9.48614C11.5802 9.40997 11.517 9.33965 11.4565 9.28432C11.3901 9.22385 11.3403 9.24429 11.3191 9.33182C11.3003 9.41074 11.2885 9.49202 11.283 9.5725C11.2418 10.1073 11.261 10.6397 11.3364 11.1702C11.3677 11.3888 11.4172 11.6052 11.4588 11.8227Z" fill="currentColor"/>
<path d="M6.99891 19.8749C6.77079 20.1266 6.59412 20.4262 6.3978 20.7057C6.36717 20.7497 6.35304 20.8047 6.33105 20.8534C6.34205 20.8608 6.35224 20.8675 6.36326 20.875C7.15087 20.3571 7.62518 19.5687 8.14034 18.8148C8.12737 18.8018 8.11441 18.7905 8.10105 18.7779C7.73236 19.1423 7.34716 19.4921 6.99891 19.8749Z" fill="currentColor"/>
<path d="M11.3922 14.3976C10.9744 15.4951 10.4428 16.5085 9.88916 17.5167C10.9799 17.117 12.0934 16.8316 13.2517 16.598C12.4696 15.9914 11.872 15.2606 11.3922 14.3976Z" fill="currentColor"/>
<path d="M15.4942 6.98438C15.0654 6.98438 14.7188 6.62395 14.7188 6.19695V0H3.8468C3.41798 0 3.07031 0.357398 3.07031 0.784383V23.2078C3.07031 23.6348 3.41798 24 3.8468 24H20.1532C20.582 24 20.9297 23.6348 20.9297 23.2078V6.98438H15.4942ZM18.4299 17.6118C18.3423 18.0205 18.0781 18.2172 17.6344 18.2345C17.1805 18.251 16.74 18.1658 16.3046 18.0503C15.5864 17.8603 14.9024 17.5835 14.2503 17.2286C14.1721 17.1858 14.0995 17.17 14.0092 17.185C12.5105 17.421 11.0412 17.7779 9.59712 18.2392C9.54059 18.258 9.48169 18.3095 9.45108 18.3609C9.02074 19.0896 8.58021 19.8109 8.03876 20.465C7.78472 20.7713 7.51144 21.0575 7.17143 21.2711C6.92564 21.425 6.66335 21.5244 6.36731 21.4824C6.11524 21.4467 5.89378 21.3277 5.69355 21.186C5.50587 21.0513 5.51215 20.8357 5.56317 20.6319C5.64722 20.2954 5.85061 20.0273 6.08109 19.7787C6.56285 19.2601 7.13768 18.8623 7.75331 18.5204C8.00421 18.3814 8.25905 18.251 8.51032 18.1128C8.55471 18.0884 8.60063 18.0527 8.6242 18.0091C9.44245 16.5611 10.2207 15.0922 10.8685 13.5578C10.9164 13.4439 10.925 13.3411 10.8936 13.2213C10.6856 12.4388 10.4978 11.6508 10.4056 10.8435C10.3534 10.3774 10.3342 9.91214 10.4311 9.44806C10.5049 9.0986 10.7268 8.88935 11.0829 8.85204C11.2399 8.83554 11.4017 8.83711 11.5592 8.85321C11.7551 8.87245 11.8929 8.9973 12.0024 9.15359C12.1462 9.35932 12.2137 9.59098 12.2192 9.8415C12.2216 9.9577 12.2196 10.0755 12.2196 10.1921C12.2286 10.1933 12.238 10.1948 12.2471 10.1956C12.1635 10.869 12.0834 11.5436 11.9934 12.2166C11.9577 12.4824 11.8973 12.7446 11.8517 13.0101C11.8454 13.0489 11.8513 13.0949 11.8658 13.1318C12.2357 14.1008 12.7673 14.9646 13.5173 15.6882C13.7968 15.958 14.1235 16.1629 14.462 16.3498C14.5122 16.3789 14.5915 16.3671 14.6563 16.3589C15.345 16.2721 16.0365 16.2148 16.7314 16.236C17.0895 16.247 17.4468 16.2741 17.7892 16.3836C17.9227 16.4276 18.0546 16.4861 18.1704 16.5642C18.3467 16.6832 18.4704 16.8493 18.4677 17.0743C18.4652 17.2541 18.4672 17.4374 18.4299 17.6118Z" fill="currentColor"/>
<path d="M17.9639 17.2384C17.863 17.1665 17.7468 17.1076 17.6274 17.0695C17.2101 16.9349 16.7778 16.9435 16.3467 16.9545C16.1535 16.9584 15.9603 16.9694 15.7671 16.9773C15.7656 16.9887 15.7648 17.0001 15.7632 17.0119C16.3058 17.227 16.8355 17.487 17.4303 17.5348C17.5827 17.5478 17.7405 17.5258 17.8937 17.5062C17.9455 17.4991 18.0291 17.4535 18.0327 17.4202C18.0373 17.3597 18.0099 17.2702 17.9639 17.2384Z" fill="currentColor"/>
<path d="M17.4355 0H16.2656V5.03906H20.9297V3.87729L17.4355 0Z" fill="currentColor"/>
</svg>
