<svg width="24" height="24" viewBox="0 0 24 24" fill="none" xmlns="http://www.w3.org/2000/svg">
<path d="M15.4942 6.98438C15.0654 6.98438 14.7188 6.62395 14.7188 6.19695V0H3.8468C3.41798 0 3.07031 0.357398 3.07031 0.784383V23.2078C3.07031 23.6348 3.41798 24 3.8468 24H20.1532C20.582 24 20.9297 23.6348 20.9297 23.2078V6.98438H15.4942ZM16.0227 16.2863L12.959 19.7113C12.3925 20.5988 11.4602 20.6027 10.8878 19.7196L7.98298 16.3205C7.40972 15.4378 7.92173 14.7114 9.11972 14.7068L10.2697 14.7016L10.2472 12.069C10.2435 11.2692 11.0138 10.6172 11.9675 10.6131C12.9215 10.6096 13.697 11.2547 13.7007 12.0546L13.7225 14.6866L14.8717 14.6822C16.0703 14.6769 16.5888 15.3986 16.0227 16.2863Z" fill="currentColor"/>
<path d="M17.4355 0H16.2656V5.03906H20.9297V3.87729L17.4355 0Z" fill="currentColor"/>
</svg>
