<svg width="24" height="24" viewBox="0 0 24 24" fill="none" xmlns="http://www.w3.org/2000/svg">
<g clip-path="url(#clip0_3885_1119)">
<path d="M18.6688 19.998C18.6688 20.8605 17.9675 21.5618 17.105 21.5618H14.8063L14.186 22.2818H17.105C18.3665 22.2818 19.3888 21.2595 19.3888 19.998V16.242L18.6688 17.0775V19.998Z" fill="currentColor"/>
<path d="M18.1514 19.998V17.679L15.2534 21.0435H17.1059C17.6827 21.0435 18.1514 20.5748 18.1514 19.998Z" fill="currentColor"/>
<path d="M4.36928 18.642C4.22603 18.642 4.11053 18.5257 4.11053 18.3832C4.11053 18.2407 4.22678 18.1245 4.36928 18.1245H12.6215L14.5018 15.9412H4.36853C4.22528 15.9412 4.10978 15.825 4.10978 15.6825C4.10978 15.54 4.22603 15.4237 4.36853 15.4237H14.948L16.8283 13.2405H4.36853C4.22528 13.2405 4.10978 13.1242 4.10978 12.9817C4.10978 12.8392 4.22603 12.723 4.36853 12.723H16.844C16.9685 12.723 17.0728 12.8107 17.0975 12.9285L18.1505 11.7052V6.50475H15.017C13.8418 6.50475 12.8848 5.5485 12.8848 4.3725V1.239H3.83603C3.25928 1.239 2.79053 1.7085 2.79053 2.2845V19.9995C2.79053 20.5762 3.26003 21.045 3.83603 21.045H10.1068L12.1753 18.6435H4.36928V18.642ZM16.8448 10.0207C16.988 10.0207 17.1035 10.137 17.1035 10.2795C17.1035 10.422 16.9873 10.5382 16.8448 10.5382H4.36928C4.22603 10.5382 4.11053 10.422 4.11053 10.2795C4.11053 10.137 4.22678 10.0207 4.36928 10.0207H16.8448ZM4.09703 3.693C4.09703 3.309 4.40828 2.997 4.79303 2.997H8.78678C9.17078 2.997 9.48278 3.30825 9.48278 3.693V7.209C9.48278 7.593 9.17153 7.905 8.78678 7.905H4.79303C4.40903 7.905 4.09703 7.59375 4.09703 7.209V3.693Z" fill="currentColor"/>
<path d="M21.9503 10.281C21.3518 9.76576 20.4466 9.83326 19.9313 10.4318L10.4011 21.4965C10.3996 21.4988 10.3981 21.5018 10.3966 21.5033C10.3823 21.5213 10.3711 21.5408 10.3598 21.561C10.3553 21.5693 10.3493 21.5768 10.3456 21.5858C10.3328 21.6158 10.3238 21.6473 10.3193 21.681L10.0883 23.6138C10.0748 23.7278 10.1191 23.841 10.2061 23.916C10.2698 23.9708 10.3501 24 10.4318 24C10.4626 24 10.4933 23.9963 10.5233 23.9873L12.4006 23.472C12.4328 23.463 12.4628 23.4495 12.4906 23.4323C12.4988 23.427 12.5048 23.4203 12.5131 23.4143C12.5318 23.4008 12.5498 23.3865 12.5648 23.3693C12.5671 23.367 12.5693 23.3663 12.5708 23.364L22.1011 12.2993C22.6163 11.7015 22.5488 10.7955 21.9503 10.2803V10.281ZM21.5776 11.8493L12.2723 22.6523L11.1496 21.6855L20.4548 10.8825C20.7211 10.5735 21.1906 10.5383 21.4996 10.8045C21.8086 11.0708 21.8438 11.5395 21.5776 11.8493Z" fill="currentColor"/>
<path d="M18.6689 11.103L19.3889 10.2675V6.504H18.6689V11.103Z" fill="currentColor"/>
<path d="M12.886 0H3.83648C2.57498 0 1.55273 1.02225 1.55273 2.28375V19.9988C1.55273 21.2603 2.57498 22.2825 3.83648 22.2825H9.72623L9.81248 21.5625H3.83648C2.97398 21.5625 2.27273 20.8612 2.27273 19.9988V2.28375C2.27273 1.42125 2.97398 0.72 3.83648 0.72H12.8852L12.886 0Z" fill="currentColor"/>
<path d="M13.4038 4.26826V0.259506L19.1308 5.98651H15.1221C14.1733 5.98651 13.4046 5.21776 13.4046 4.26901L13.4038 4.26826Z" fill="currentColor"/>
</g>
<defs>
<clipPath id="clip0_3885_1119">
<rect width="24" height="24" fill="white"/>
</clipPath>
</defs>
</svg>
