<svg width="24" height="24" viewBox="0 0 24 24" fill="none" xmlns="http://www.w3.org/2000/svg">
<path d="M6 0C4.3455 0 3 1.3455 3 3V13.5H8.25C8.53575 13.5 8.79375 13.659 8.9205 13.9125L9.75 15.5715L12.0795 10.9117C12.2063 10.6582 12.4635 10.4992 12.75 10.4992C13.0365 10.4992 13.2937 10.659 13.4205 10.9117L14.7143 13.4993H18C18.4125 13.4993 18.75 13.8368 18.75 14.2493C18.75 14.6618 18.4125 14.9993 18 14.9993H14.25C13.9642 14.9993 13.7063 14.8403 13.5795 14.5868L12.75 12.9277L10.4205 17.5875C10.2937 17.8403 10.0312 18 9.75 18C9.46875 18 9.20625 17.841 9.0795 17.5875L7.78575 15H3V21C3 22.6545 4.3455 24 6 24H18C19.6545 24 21 22.6545 21 21V7.5H15C14.1705 7.5 13.5 6.8295 13.5 6V0H6ZM15 0V6H21L15 0Z" fill="currentColor"/>
</svg>
