<svg width="24" height="24" viewBox="0 0 24 24" fill="none" xmlns="http://www.w3.org/2000/svg">
<path d="M6 0C4.3455 0 3 1.3455 3 3V21C3 22.6545 4.3455 24 6 24H18C19.6545 24 21 22.6545 21 21V7.5H15C14.1705 7.5 13.5 6.8295 13.5 6V0H6ZM15 0V6H21L15 0ZM6.75 10.5H7.5C8.53575 10.5 9.375 11.3392 9.375 12.375V12.75C9.375 13.1625 9.0375 13.5 8.625 13.5C8.2125 13.5 7.875 13.1625 7.875 12.75V12.375C7.875 12.1687 7.70625 12 7.5 12H6.75C6.54375 12 6.375 12.1687 6.375 12.375V16.125C6.375 16.3312 6.54375 16.5 6.75 16.5H7.5C7.70625 16.5 7.875 16.3312 7.875 16.125V15.75C7.875 15.3375 8.2125 15 8.625 15C9.0375 15 9.375 15.3375 9.375 15.75V16.125C9.375 17.1607 8.53575 18 7.5 18H6.75C5.71425 18 4.875 17.1607 4.875 16.125V12.375C4.875 11.3392 5.71425 10.5 6.75 10.5ZM10.125 12.675C10.125 11.475 11.1 10.5 12.3 10.5H13.125C13.5375 10.5 13.875 10.8375 13.875 11.25C13.875 11.6625 13.5375 12 13.125 12H12.3C11.9295 12 11.625 12.3 11.625 12.675C11.625 12.9187 11.7562 13.1392 11.9625 13.2607L13.1535 13.9403C13.8285 14.3295 14.2508 15.0465 14.2508 15.8295C14.2508 17.0295 13.2758 18.0045 12.0758 18.0045H10.8758C10.4633 18.0045 10.1258 17.667 10.1258 17.2545C10.1258 16.842 10.4633 16.5045 10.8758 16.5045H12.0758C12.4462 16.5045 12.7508 16.2045 12.7508 15.8295C12.7508 15.5858 12.6195 15.3653 12.4132 15.2438L11.2222 14.5643C10.5428 14.175 10.125 13.4535 10.125 12.675ZM16.125 11.25V12.7313C16.125 13.8098 16.383 14.8688 16.875 15.825C17.367 14.8733 17.625 13.8142 17.625 12.7313V11.25C17.625 10.8375 17.9625 10.5 18.375 10.5C18.7875 10.5 19.125 10.8375 19.125 11.25V12.7313C19.125 14.358 18.642 15.9518 17.7375 17.3063L17.4982 17.667C17.3572 17.8778 17.1233 18 16.875 18C16.6267 18 16.392 17.8732 16.2518 17.667L16.0125 17.3063C15.108 15.9518 14.625 14.358 14.625 12.7313V11.25C14.625 10.8375 14.9625 10.5 15.375 10.5C15.7875 10.5 16.125 10.8375 16.125 11.25Z" fill="currentColor"/>
</svg>
