<svg width="24" height="24" viewBox="0 0 24 24" fill="none" xmlns="http://www.w3.org/2000/svg">
<path d="M14.8105 6.19695V0H3.85291C3.42072 0 3.07031 0.357398 3.07031 0.784383V23.2078C3.07031 23.6348 3.42072 24 3.85291 24H20.2877C20.7199 24 21.0703 23.6348 21.0703 23.2078V6.98438H15.5921C15.1599 6.98438 14.8105 6.62395 14.8105 6.19695ZM14.0758 20.25L12.1438 16.6011L10.2262 20.25H7.20703L10.441 15.1193L7.55049 10.5H10.6559L12.3302 13.7656L14.0469 10.5H16.9664L14.0469 15.1193L17.2525 20.25H14.0758Z" fill="currentColor"/>
<path d="M17.5487 0H16.3696V5.03906H21.0704V3.87729L17.5487 0Z" fill="currentColor"/>
</svg>
