<svg width="24" height="24" viewBox="0 0 24 24" fill="none" xmlns="http://www.w3.org/2000/svg">
<path d="M15.4942 6.98438C15.0654 6.98438 14.7188 6.62395 14.7188 6.19695V0H3.8468C3.41798 0 3.07031 0.357398 3.07031 0.784383V23.2078C3.07031 23.6348 3.41798 24 3.8468 24H20.1532C20.582 24 20.9297 23.6348 20.9297 23.2078V6.98438H15.4942ZM17.8075 12.731L17.7656 12.7819V20.4805L17.8075 20.5313C17.5211 20.8186 17.1057 20.8186 16.8184 20.5313L13.9922 17.6553V19.7822C13.9922 20.2462 13.6083 20.6016 13.1443 20.6016H6.84232C6.3783 20.6016 6 20.2462 6 19.7822V13.4802C6 13.0162 6.3783 12.6562 6.84232 12.6562H13.1443C13.6083 12.6562 13.9922 13.0162 13.9922 13.4802V15.6071L16.8184 12.731C17.1057 12.4438 17.5203 12.4438 17.8075 12.731Z" fill="currentColor"/>
<path d="M17.4355 0H16.2656V5.03906H20.9297V3.87729L17.4355 0Z" fill="currentColor"/>
</svg>
