<svg width="24" height="24" viewBox="0 0 24 24" fill="none" xmlns="http://www.w3.org/2000/svg">
<path d="M15.6414 0H14.5692H4.91941C3.86742 0 3.11719 0.603047 3.11719 1.44555V22.1905C3.11719 23.0763 4.0343 24 4.91941 24H19.9302C20.772 24 21.375 23.2432 21.375 22.1905V7.52597V6.45293V3.96532L17.8276 0H15.6414ZM19.5703 22.2188H4.99898C4.97175 22.1953 4.92188 22.1381 4.92188 22.1108V1.78125H13.8516V6.45293C13.8516 7.33873 14.7563 8.22656 15.6414 8.22656H19.5703V22.2188ZM19.5703 6.44531H15.721C15.6937 6.44531 15.6562 6.4009 15.6562 6.37331V1.78125H17.0291L19.5703 4.64852V6.44531Z" fill="currentColor"/>
<path d="M8.77148 16.3462L6.44531 18.5962V20.4609H18.0703V15.5962L16.0605 13.4868L11.0918 18.7368L8.77148 16.3462Z" fill="currentColor"/>
<path d="M8.94141 14.1431C10.2099 14.1431 11.2383 13.1147 11.2383 11.8462C11.2383 10.5776 10.2099 9.5493 8.94141 9.5493C7.67288 9.5493 6.64453 10.5776 6.64453 11.8462C6.64453 13.1147 7.67288 14.1431 8.94141 14.1431Z" fill="currentColor"/>
</svg>
