<svg width="24" height="24" viewBox="0 0 24 24" fill="none" xmlns="http://www.w3.org/2000/svg">
<path d="M23 3.99973L20.6428 18.9998L12.0004 25L3.35717 18.9998L1 3.99973L12.0004 1L23 3.99973Z" fill="#225BA8"/>
<path d="M12.2673 6.00549H13.1684L12.443 6.54523L12.7254 7.40107L12.0022 6.87423L11.2791 7.40107L11.5644 6.54523L10.8323 6.00549H11.7334L12.0007 5.17188L12.2673 6.00693V6.00549Z" fill="#FBB03B"/>
<path d="M12.2986 17.0254H13.1997L12.4728 17.5458L12.7552 18.3679L12.0335 17.8583L11.3111 18.3651L11.5957 17.5429L10.8621 17.0225H11.7632L12.035 16.2197L12.2986 17.0254Z" fill="#FBB03B"/>
<path d="M15.1546 16.296H16.0557L15.3288 16.8156L15.6111 17.6392L14.888 17.1303L14.1656 17.6392L14.4502 16.8156L13.7166 16.296H14.6177L14.8895 15.4932L15.1546 16.296Z" fill="#FBB03B"/>
<path d="M15.1546 6.73981H16.0557L15.3288 7.25947L15.6111 8.08306L14.888 7.57557L14.1656 8.08306L14.4502 7.25947L13.7166 6.73981H14.6177L14.8895 5.93701L15.1546 6.73981Z" fill="#FBB03B"/>
<path d="M17.2749 8.7637H18.176L17.4506 9.28193L17.7329 10.1062L17.0098 9.59875L16.2889 10.1062L16.5735 9.28193L15.8398 8.7637H16.741L17.0128 7.95947L17.2749 8.7637Z" fill="#FBB03B"/>
<path d="M17.2752 14.2993H18.1763L17.4509 14.8197L17.7332 15.644L17.0086 15.1351L16.2877 15.644L16.5723 14.8197L15.8386 14.2993H16.7397L17.0116 13.4951L17.2752 14.2993Z" fill="#FBB03B"/>
<path d="M18.0693 11.4893H18.9704L18.2473 12.009L18.5296 12.8333L17.8065 12.3244L17.0841 12.8333L17.3687 12.009L16.635 11.4893H17.5361L17.8095 10.6865L18.0693 11.4893Z" fill="#FBB03B"/>
<path d="M9.35472 6.74856H10.2558L9.53044 7.26895L9.81279 8.09253L9.08589 7.58218L8.36275 8.0911L8.6481 7.26751L7.91895 6.74856H8.82006L9.08589 5.94434L9.35547 6.74856H9.35472Z" fill="#FBB03B"/>
<path d="M7.29346 8.77031H8.19458L7.46768 9.28998L7.75003 10.1171L7.02763 9.60823L6.30749 10.1171L6.59059 9.29284L5.85693 8.77031H6.75805L7.02838 7.9668L7.29346 8.76959V8.77031Z" fill="#FBB03B"/>
<path d="M6.52829 11.4961H7.42941L6.70401 12.0158L6.98335 12.8408L6.26096 12.3333L5.54006 12.8408L5.82467 12.0165L5.09326 11.4968H5.99438L6.26321 10.6904L6.52829 11.4961Z" fill="#FBB03B"/>
<path d="M7.29346 14.3065H8.19458L7.46768 14.8269L7.74853 15.6512L7.02613 15.1422L6.30749 15.6512L6.59059 14.8269L5.85693 14.3065H6.75805L7.02989 13.5044L7.29496 14.3065H7.29346Z" fill="#FBB03B"/>
<path d="M9.3865 16.3025H10.2876L9.56222 16.8221L9.83706 17.6436L9.11616 17.1361L8.39602 17.6436L8.68138 16.82L7.94922 16.3003H8.85033L9.12217 15.4961L9.3865 16.3025Z" fill="#FBB03B"/>
<path d="M10.0283 9.98291V12.5769L12.0678 14.523L14.1066 12.5769V9.98291" stroke="white" stroke-miterlimit="10" stroke-linecap="square"/>
<path d="M12.0359 9.98291V12.2494" stroke="white" stroke-miterlimit="10" stroke-linecap="square"/>
<g style="mix-blend-mode:multiply" opacity="0.2">
<path d="M12.0002 25L20.6427 18.9998L22.9999 3.99973L12.0002 1V25Z" fill="black"/>
</g>
<path d="M23 3.99973L20.6428 18.9998L12.0004 25L3.35717 18.9998L1 3.99973L12.0004 1L23 3.99973Z" stroke="#F2F2F2"/>
</svg>
