<svg width="24" height="24" viewBox="0 0 24 24" fill="none" xmlns="http://www.w3.org/2000/svg">
<path d="M6.75023 21V10.371C7.63148 10.0523 8.24948 9.2235 8.24948 8.25C8.24948 7.2765 7.63148 6.447 6.76598 6.1335L6.75023 6.12825V2.99925C6.75023 2.58525 6.41423 2.24925 6.00023 2.24925C5.58623 2.24925 5.25023 2.58525 5.25023 2.99925V6.12825C4.36898 6.447 3.75098 7.27575 3.75098 8.24925C3.75098 9.22275 4.36898 10.0523 5.23448 10.3658L5.25023 10.371V21C5.25023 21.414 5.58623 21.75 6.00023 21.75C6.41423 21.75 6.75023 21.414 6.75023 21ZM17.2502 3V6.129C16.369 6.44775 15.751 7.2765 15.751 8.25C15.751 9.2235 16.369 10.053 17.2345 10.3665L17.2502 10.3718V21.0008C17.2502 21.4148 17.5862 21.7508 18.0002 21.7508C18.4142 21.7508 18.7502 21.4148 18.7502 21.0008V10.3718C19.6315 10.053 20.2495 9.22425 20.2495 8.25075C20.2495 7.27725 19.6315 6.44775 18.766 6.13425L18.7502 6.129V3C18.7502 2.586 18.4142 2.25 18.0002 2.25C17.5862 2.25 17.2502 2.586 17.2502 3ZM11.2502 3V13.629C10.369 13.9478 9.75098 14.7765 9.75098 15.75C9.75098 16.7235 10.369 17.553 11.2345 17.8665L11.2502 17.8718V21.0008C11.2502 21.4148 11.5862 21.7508 12.0002 21.7508C12.4142 21.7508 12.7502 21.4148 12.7502 21.0008V17.8718C13.6315 17.553 14.2495 16.7243 14.2495 15.7508C14.2495 14.7773 13.6315 13.9478 12.766 13.6343L12.7502 13.629V3C12.7502 2.586 12.4142 2.25 12.0002 2.25C11.5862 2.25 11.2502 2.586 11.2502 3Z" fill="currentColor"/>
</svg>
