<svg version="1.1" xmlns="http://www.w3.org/2000/svg" width="48" height="48" viewBox="0 0 48 48">
<title>person-thin</title>
<path fill="currentColor" d="M40.050 40.2c1.95 0.75 7.95 3 7.95 7.8h-48c0-4.8 6-7.050 7.95-7.8s4.65-0.9 6.45-1.35c1.050-0.3 2.55-0.75 3-1.35s0.15-6.15 0.15-6.15-0.9-1.5-1.35-2.7-1.050-4.8-1.050-4.8-1.050 0-1.35-1.8c-0.3-1.95-0.9-2.55-0.9-4.050 0-1.35 0.75-1.5 0.75-1.5v0s-0.6-1.95-0.75-6.3c-0.15-5.1 3.75-10.2 11.1-10.2s11.25 5.1 11.1 10.2c-0.15 4.35-0.75 6.3-0.75 6.3v0s0.75 0.15 0.75 1.5c0 1.5-0.45 2.25-0.9 4.2-0.3 1.8-1.35 1.8-1.35 1.8s-0.6 3.45-1.050 4.65-1.35 2.7-1.35 2.7-0.3 5.55 0.15 6.15 1.95 1.050 3 1.35c1.8 0.45 4.5 0.6 6.45 1.35z"></path>
</svg>
