<svg version="1.1" xmlns="http://www.w3.org/2000/svg" width="48" height="48" viewBox="0 0 48 48">
<title>rss-o</title>
<path fill="currentColor" d="M7 34c3.875 0 7 3.125 7 7s-3.125 7-7 7-7-3.125-7-7 3.125-7 7-7zM7 46c2.75 0 5-2.25 5-5s-2.25-5-5-5-5 2.25-5 5 2.25 5 5 5zM0 16c17.5 0 32 14.5 32 32h-10c0-6-1.75-11.75-6-16s-10-6-16-6v-10zM30 46c-0.25-3.25-1-6.5-2.375-9.625-1.5-3.5-3.75-6.75-6.5-9.5s-6-5-9.5-6.5c-3.125-1.25-6.375-2-9.625-2.25v5.875c6.25 0.375 11.5 2.75 15.375 6.625s6.25 9.125 6.625 15.375h6zM0 0c26.5 0 48 21.5 48 48h-10c0-21.375-16.625-38-38-38v-10zM28.375 19.5c7 7 11.125 16.375 11.625 26.5h6c-1-23.75-20.25-43-44-44v6c10.125 0.5 19.375 4.5 26.375 11.5z"></path>
</svg>
