<svg version="1.1" xmlns="http://www.w3.org/2000/svg" width="48" height="48" viewBox="0 0 48 48">
<title>rss</title>
<path fill="currentColor" d="M10.985 45.851c-1.163 1.164-2.764 1.89-4.534 1.911l-0.004 0c-1.671 0-3.343-0.956-4.538-1.911-0.951-1.193-1.909-2.869-1.909-4.538s0.956-3.343 1.911-4.538c1.164-1.163 2.764-1.888 4.534-1.909l0.004-0c1.669 0 3.343 0.956 4.536 1.911 1.163 1.164 1.888 2.764 1.909 4.534l0 0.004c-0.238 1.909-0.716 3.343-1.909 4.536zM22.449 47.762c0-5.972-2.151-11.463-6.449-15.761s-9.79-6.449-15.761-6.449v-9.074c8.596 0 16.479 3.583 22.211 9.314 5.729 5.732 9.312 13.375 9.312 22.209l-9.312-0.24zM38.686 47.762c0-21.255-17.433-38.688-38.448-38.688v-9.074c13.135 0 25.076 5.254 33.672 14.090s14.090 20.535 14.090 33.67h-9.314z"></path>
</svg>
