<svg width="24" height="24" viewBox="0 0 24 24" fill="none" xmlns="http://www.w3.org/2000/svg">
<path d="M1.34437 0C0.6075 0 0 0.6075 0 1.34437V19.2C0 19.4644 0.215625 19.68 0.48 19.68H12.96C13.1325 19.6819 13.2938 19.5919 13.3819 19.4419C13.4681 19.2919 13.4681 19.1081 13.3819 18.9581C13.2938 18.8081 13.1325 18.7181 12.96 18.72H0.96V4.32H20.16V12.96C20.1581 13.1325 20.2481 13.2938 20.3981 13.3819C20.5481 13.4681 20.7319 13.4681 20.8819 13.3819C21.0319 13.2938 21.1219 13.1325 21.12 12.96V1.34437C21.12 0.6075 20.5125 0 19.7756 0H1.34437Z" fill="currentColor"/>
<circle cx="4.25" cy="7.25" r="1.25" fill="currentColor"/>
<circle cx="4.25" cy="11.15" r="1.25" fill="currentColor"/>
<circle cx="4.25" cy="15.05" r="1.25" fill="currentColor"/>
<rect x="7.3999" y="6.20001" width="11" height="2" rx="1" fill="currentColor"/>
<rect x="7.3999" y="10.2" width="11" height="2" rx="1" fill="currentColor"/>
<rect x="7.3999" y="14.2" width="7.2" height="2" rx="1" fill="currentColor"/>
<path d="M19.0001 14.125C17.8722 14.1249 16.7792 14.5159 15.9073 15.2314C15.0354 15.9469 14.4386 16.9425 14.2185 18.0487C13.9984 19.1548 14.1687 20.3031 14.7003 21.2978C15.2319 22.2925 16.092 23.0722 17.134 23.5038C18.1759 23.9355 19.3354 23.9925 20.4147 23.6652C21.494 23.3378 22.4264 22.6463 23.0531 21.7086C23.6797 20.7708 23.9618 19.6448 23.8513 18.5224C23.7408 17.3999 23.2445 16.3506 22.4471 15.553C21.5329 14.6387 20.293 14.1251 19.0001 14.125V14.125ZM21.5316 19.75H18.7191C18.6941 19.75 18.6702 19.7401 18.6526 19.7225C18.635 19.7048 18.6251 19.6809 18.6251 19.656V15.7185C18.6252 15.6937 18.6351 15.6699 18.6528 15.6524C18.6704 15.6348 18.6942 15.625 18.7191 15.625H19.2816C19.3065 15.625 19.3304 15.6349 19.348 15.6525C19.3657 15.6702 19.3756 15.6941 19.3756 15.719V19H21.5321C21.5568 19.0003 21.5805 19.0103 21.5979 19.0279C21.6153 19.0455 21.6251 19.0692 21.6251 19.094V19.6565C21.6251 19.6688 21.6226 19.6811 21.6179 19.6925C21.6132 19.7039 21.6063 19.7142 21.5975 19.723C21.5888 19.7317 21.5784 19.7386 21.567 19.7433C21.5556 19.7481 21.5434 19.7505 21.5311 19.7505L21.5316 19.75Z" fill="currentColor"/>
</svg>
