<svg width="24" height="24" viewBox="0 0 24 24" fill="none" xmlns="http://www.w3.org/2000/svg">
<path fill-rule="evenodd" clip-rule="evenodd" d="M18.3592 18.1437C17.8814 18.0757 17.4017 18.0976 16.9226 18.093C16.2821 18.0873 16.3232 18.152 16.3219 17.5067C16.3213 17.1935 16.3277 16.8799 16.3174 16.5673C16.2904 15.7643 15.7959 15.106 15.0284 14.881C14.8049 14.8153 14.7419 14.721 14.7721 14.494C15.1663 11.5368 15.5557 8.57904 15.9393 5.6204C16.0297 4.92358 16.1547 4.23173 16.0605 3.51825C15.7975 1.52688 13.9464 -0.0661657 11.9452 0.00210778C9.4928 0.0856156 7.67196 2.18632 7.96034 4.6219C8.12079 5.97785 8.31373 7.32996 8.49185 8.68387C8.74554 10.6155 8.99632 12.548 9.25551 14.479C9.28605 14.7063 9.23815 14.815 8.99442 14.8852C8.19989 15.114 7.70088 15.7828 7.67773 16.6054C7.6687 16.9357 7.67452 17.2665 7.67386 17.5971C7.67287 18.0917 7.67287 18.0917 7.18962 18.0924C6.87579 18.093 6.56133 18.0883 6.24752 18.0943C4.05497 18.1386 2.373 19.7236 2.20418 21.9021C2.15531 22.5327 2.43438 22.8494 3.07263 22.8725C3.38646 22.884 3.70094 22.8808 4.01477 22.877C4.20187 22.8747 4.3035 22.9151 4.28517 23.1431C4.2559 23.5073 4.41668 23.7854 4.70381 23.9085C4.87005 23.98 5.04497 24 5.21925 24C7.47902 24 9.73877 24 11.9985 24C12.1207 24 12.2429 24 12.3651 24C14.529 24 16.693 23.9745 18.8566 23.9714C19.4627 23.9707 19.7187 23.7008 19.7087 23.0994C19.7058 22.9183 19.7984 22.8889 19.9325 22.887C20.3077 22.8825 20.6839 22.8919 21.0575 22.8688C21.5791 22.8365 21.8257 22.5524 21.8202 22.0356C21.8 20.1429 20.2614 18.4156 18.3592 18.1437ZM9.09185 16.6843C9.09956 16.3964 9.2224 16.265 9.51178 16.2644C11.1323 16.2586 12.7529 16.2586 14.3731 16.264C14.6589 16.265 14.7892 16.401 14.7966 16.6837C14.8059 17.0568 14.793 17.431 14.8024 17.8042C14.8081 18.019 14.7181 18.0956 14.5072 18.0943C13.6535 18.0879 12.7998 18.0917 11.9458 18.0917C11.1008 18.0917 10.2555 18.0866 9.41048 18.0952C9.17672 18.0976 9.07704 18.018 9.0851 17.7785C9.09698 17.414 9.08252 17.0489 9.09185 16.6843ZM19.9823 21.3998C19.8952 21.4018 19.808 21.375 19.7206 21.375C17.147 21.375 14.5734 21.375 11.9995 21.375C9.4346 21.375 6.86939 21.375 4.30446 21.375C4.20832 21.375 4.11253 21.4034 4.01669 21.3989C3.77264 21.3867 3.73055 21.3461 3.83566 21.1203C4.26715 20.1929 4.99706 19.6742 6.01601 19.5536C6.14529 19.5383 6.27741 19.5444 6.40828 19.5444C10.1423 19.5437 13.8763 19.5504 17.6106 19.5415C18.5264 19.5396 19.2769 19.8554 19.8582 20.5632C19.992 20.7261 20.0968 20.8945 20.1823 21.085C20.3045 21.3575 20.2724 21.3938 19.9823 21.3998Z" fill="currentColor"/>
</svg>
