<svg version="1.1" xmlns="http://www.w3.org/2000/svg" width="48" height="48" viewBox="0 0 48 48">
<title>thumb-down</title>
<path fill="currentColor" d="M30.545 2.182h-19.636c-1.811 0-3.36 1.091-4.015 2.662l-6.589 15.382c-0.196 0.502-0.305 1.025-0.305 1.593v4.364c0 2.4 1.964 4.364 4.364 4.364h13.767l-2.073 9.971-0.065 0.698c0 0.894 0.371 1.724 0.96 2.313l2.313 2.291 14.378-14.378c0.785-0.785 1.266-1.876 1.266-3.076v-21.818c0-2.4-1.964-4.364-4.364-4.364zM39.273 2.182v26.182h8.727v-26.182h-8.727z"></path>
</svg>
