<svg version="1.1" xmlns="http://www.w3.org/2000/svg" width="48" height="48" viewBox="0 0 48 48">
<title>thumb-up</title>
<path fill="currentColor" d="M0 45.818h8.727v-26.182h-8.727v26.182zM48 21.818c0-2.4-1.964-4.364-4.364-4.364h-13.767l2.073-9.971 0.065-0.698c0-0.894-0.371-1.724-0.96-2.313l-2.313-2.291-14.357 14.378c-0.807 0.785-1.287 1.876-1.287 3.076v21.818c0 2.4 1.964 4.364 4.364 4.364h19.636c1.811 0 3.36-1.091 4.015-2.662l6.589-15.382c0.196-0.502 0.305-1.025 0.305-1.593v-4.364z"></path>
</svg>
