<svg width="24" height="24" viewBox="0 0 24 24" fill="none" xmlns="http://www.w3.org/2000/svg">
<path d="M23.5586 8.39438L12.3242 14.4693C12.2231 14.5237 12.1118 14.5521 11.999 14.5521C11.8862 14.5521 11.7749 14.5237 11.6738 14.4693L0.410117 8.37951C0.290306 8.31456 0.18899 8.21539 0.117011 8.09264C0.0450326 7.96988 0.00510093 7.82815 0.00148946 7.68261C-0.00212202 7.53707 0.0307226 7.3932 0.0965084 7.2664C0.162294 7.1396 0.258545 7.03464 0.374961 6.96275L11.6386 0.101966C11.7497 0.0334523 11.8752 -0.00256348 12.0029 -0.00256348C12.1306 -0.00256348 12.2561 0.0334523 12.3671 0.101966L23.6328 6.96275C23.7522 7.03561 23.8505 7.14321 23.9168 7.27349C23.983 7.40377 24.0146 7.55155 24.0079 7.70026C24.0012 7.84896 23.9565 7.99268 23.8789 8.1153C23.8012 8.23791 23.6937 8.33456 23.5683 8.39438H23.5586ZM21.6504 17.0882C21.4792 16.9868 21.352 16.8156 21.2969 16.6123C21.2418 16.4089 21.2632 16.1901 21.3564 16.0039C21.4496 15.8177 21.6071 15.6794 21.7941 15.6195C21.9811 15.5595 22.1823 15.5828 22.3535 15.6842L23.6054 16.4022C23.7781 16.5011 23.9076 16.6705 23.9655 16.8733C24.0234 17.076 24.0049 17.2954 23.914 17.4833C23.8396 17.64 23.7203 17.766 23.5742 17.8423L12.3242 23.9172C12.2231 23.9716 12.1118 24 11.999 24C11.8862 24 11.7749 23.9716 11.6738 23.9172L0.410117 17.8274C0.237551 17.7333 0.105858 17.5693 0.0433919 17.3707C-0.0190741 17.1721 -0.00731668 16.9547 0.0761328 16.7654C0.141777 16.6103 0.25219 16.4828 0.390586 16.4022L1.56246 15.7352C1.72643 15.6381 1.91824 15.6126 2.0989 15.6638C2.27956 15.715 2.4355 15.8392 2.53501 16.011C2.63452 16.1827 2.67012 16.3893 2.63459 16.5886C2.59905 16.788 2.49504 16.9651 2.34371 17.084L12 22.3029L21.6504 17.084V17.0882ZM21.6796 12.2538C21.5579 12.119 21.484 11.9417 21.4711 11.7532C21.4583 11.5648 21.5073 11.3775 21.6094 11.2246C21.7115 11.0718 21.8602 10.9632 22.029 10.9183C22.1978 10.8734 22.3757 10.8951 22.5312 10.9794L23.6035 11.5932C23.7248 11.6624 23.8259 11.767 23.8954 11.8954C23.9649 12.0238 24 12.1707 23.9968 12.3196C23.9935 12.4685 23.9521 12.6135 23.877 12.7381C23.802 12.8628 23.6964 12.9621 23.5722 13.0249L12.3242 19.0998C12.2231 19.1542 12.1118 19.1826 11.999 19.1826C11.8862 19.1826 11.7749 19.1542 11.6738 19.0998L0.410117 13.01C0.237912 12.9155 0.106548 12.7515 0.0441313 12.553C-0.0182857 12.3545 -0.00679943 12.1374 0.0761328 11.948C0.142134 11.7931 0.252452 11.6657 0.390586 11.5848L1.54293 10.9242C1.70607 10.8242 1.8981 10.7955 2.07996 10.8441C2.26182 10.8926 2.41984 11.0147 2.52187 11.1855C2.6239 11.3563 2.66227 11.5629 2.62917 11.7633C2.59607 11.9638 2.494 12.143 2.34371 12.2645L12.0058 17.4897L21.6796 12.2538ZM12 12.8592L21.6796 7.61909L12 1.71839L2.31051 7.61909L12 12.8592Z" fill="currentColor"/>
</svg>
