<svg version="1.1" xmlns="http://www.w3.org/2000/svg" width="48" height="48" viewBox="0 0 48 48">
<title>zoom-out</title>
<path fill="currentColor" d="M33.876 29.931h-2.078l-0.736-0.71c2.577-2.998 4.129-6.891 4.129-11.125 0-9.442-7.654-17.095-17.095-17.095s-17.095 7.654-17.095 17.095 7.654 17.095 17.095 17.095c4.234 0 8.127-1.552 11.125-4.129l0.71 0.736v2.078l13.15 13.124 3.919-3.919-13.124-13.15zM18.095 29.931c-6.549 0-11.835-5.286-11.835-11.835s5.286-11.835 11.835-11.835 11.835 5.286 11.835 11.835-5.286 11.835-11.835 11.835zM11.52 16.78h13.15v2.63h-13.15z"></path>
</svg>
