<svg xmlns="http://www.w3.org/2000/svg" xml:space="preserve" viewBox="0 0 24 24"><path d="M18.2 13.5h-2.8v-.1c.1-.4.1-1 .1-1.6s-.1-1.2-.1-1.6v-.1h2.8c.1.6.2 1.1.2 1.6 0 .7 0 1.3-.2 1.8m-.6 1.6c-.8 1.3-2 2.4-3.5 2.9H14l.1-.1c.5-.9.8-1.8 1.1-2.8zm-3.7-1.5h-3.8c-.1-.6-.1-1.1-.1-1.7 0-.5 0-1 .1-1.6h3.8c.1.6.1 1.1.1 1.6 0 .6 0 1.1-.1 1.7m-.3 1.5c-.3 1.1-.9 2.2-1.5 3.2v.1-.1c-.7-1-1.2-2-1.5-3.2V15zM9.9 18c-1.5-.5-2.7-1.5-3.5-2.9V15h2.5c.2 1.1.6 2.1 1 3h.1zm-4.1-4.5c-.1-.6-.2-1.1-.2-1.6s.1-1 .2-1.6h2.8v.1c-.1.4-.1 1-.1 1.6s.1 1.2.1 1.6v.1zm.6-4.8c.8-1.3 2-2.4 3.5-2.9h.1v.1c-.5.9-.9 1.8-1.1 2.8zm4 0c.3-1.1.9-2.2 1.5-3.2v-.1.1c.7 1 1.2 2 1.5 3.2v.1zm3.7-2.9c1.5.5 2.7 1.5 3.5 2.9v.1h-2.5c-.2-1.1-.6-2-1-3H14zM20 2H4c-1.1 0-2 .9-2 2v16c0 1.1.9 2 2 2h16c1.1 0 2-.9 2-2V4c0-1.1-.9-2-2-2"/></svg>