<svg xmlns="http://www.w3.org/2000/svg" xml:space="preserve" viewBox="0 0 24 24"><path d="M2 12c0 5.5 4.5 10 10 10s10-4.5 10-10S17.5 2 12 2 2 6.5 2 12m10-8c.8 1.2 1.5 2.5 1.9 4h-3.8c.4-1.4 1.1-2.8 1.9-4m2.6.4c1.8.7 3.4 1.9 4.3 3.6h-3c-.2-1.2-.7-2.5-1.3-3.6m-5.2 0C8.8 5.5 8.4 6.8 8 8H5.1C6 6.3 7.6 5.1 9.4 4.4m7.1 7.6c0-.7-.1-1.3-.1-2h3.4c.2.6.3 1.3.3 2s-.1 1.4-.3 2h-3.4c0-.7.1-1.3.1-2m-7 0c0-.7.1-1.3.2-2h4.7c.1.7.2 1.3.2 2s-.1 1.3-.2 2H9.7c-.1-.7-.2-1.3-.2-2M4 12c0-.7.1-1.4.3-2h3.4c-.1.7-.1 1.3-.1 2s.1 1.3.1 2H4.3c-.2-.6-.3-1.3-.3-2m12 4h3c-1 1.7-2.5 2.9-4.3 3.6.5-1.1 1-2.4 1.3-3.6m-5.9 0h3.8c-.4 1.4-1.1 2.8-1.9 4-.8-1.2-1.5-2.6-1.9-4m-5 0H8c.3 1.2.8 2.5 1.4 3.6-1.8-.7-3.4-1.9-4.3-3.6"/></svg>