<svg xmlns="http://www.w3.org/2000/svg" width="32" height="32" viewBox="0 0 24 24"><path d="M2.7 1.5h1.05a1.2 1.2 0 0 1 0 2.398H2.7a1.2 1.2 0 0 1 0-2.398m6 0h12.6a1.2 1.2 0 1 1 0 2.398H8.7a1.2 1.2 0 0 1 0-2.398m-6 6.2h1.05a1.2 1.2 0 0 1 0 2.402H2.7a1.202 1.202 0 0 1 0-2.402m6 0h12.6a1.202 1.202 0 0 1 0 2.402H8.7a1.202 1.202 0 0 1 0-2.402m-6 6.198h1.05a1.2 1.2 0 0 1 0 2.403H2.7a1.202 1.202 0 0 1 0-2.403m6 0h12.6a1.202 1.202 0 0 1 0 2.402H8.7a1.202 1.202 0 0 1 0-2.402m-6 6.204h1.05a1.2 1.2 0 1 1 0 2.398H2.7a1.2 1.2 0 1 1 0-2.398m6 0h12.6a1.2 1.2 0 0 1 0 2.398H8.7a1.2 1.2 0 1 1 0-2.398m0 0"/></svg>