<svg xmlns="http://www.w3.org/2000/svg" width="24" height="24" viewBox="0 0 24 24"><path fill-rule="evenodd" d="M1.524 12C1.524 6.217 6.217 1.524 12 1.524S22.476 6.217 22.476 12 17.783 22.476 12 22.476 1.524 17.783 1.524 12m2.095 0a8.384 8.384 0 0 1 8.38-8.38A8.384 8.384 0 0 1 20.382 12 8.384 8.384 0 0 1 12 20.381a8.384 8.384 0 0 1-8.381-8.38m10.476-4.19a1.048 1.048 0 0 1 2.095 0v8.38a1.048 1.048 0 0 1-2.095 0zM8.857 6.762c-.579 0-1.048.47-1.048 1.048v8.38a1.048 1.048 0 1 0 2.096 0V7.81c0-.579-.47-1.048-1.048-1.048"/></svg>